<?xml version="1.0" encoding="UTF-8"?>
<!DOCTYPE svg PUBLIC "-//W3C//DTD SVG 1.1//EN" "http://www.w3.org/Graphics/SVG/1.1/DTD/svg11.dtd">
<!-- Creator: CorelDRAW X7 -->
<svg xmlns="http://www.w3.org/2000/svg" xml:space="preserve" width="2.798in" height="2.798in" version="1.1" style="shape-rendering:geometricPrecision; text-rendering:geometricPrecision; image-rendering:optimizeQuality; fill-rule:evenodd; clip-rule:evenodd"
viewBox="0 0 2798 2798"
 xmlns:xlink="http://www.w3.org/1999/xlink">
 <defs>
  <style type="text/css">
   <![CDATA[
    .fil0 {fill:#B68834}
    .fil1 {fill:white}
   ]]>
  </style>
 </defs>
 <g id="Layer_x0020_1">
  <metadata id="CorelCorpID_0Corel-Layer"/>
  <circle class="fil0" cx="1399" cy="1399" r="1399"/>
  <g id="_730286448">
   <path class="fil1" d="M459 1254l-6 90c75,-10 40,-23 68,-151 27,-120 82,-245 149,-338 201,-277 524,-442 886,-399 154,18 291,70 415,152 16,10 34,27 50,33 7,-8 7,-12 20,-18 21,23 18,17 9,47 14,6 23,13 33,26 10,-7 7,-9 16,-13 11,-4 11,-2 19,3l14 13c9,7 3,0 14,5 10,33 2,26 -17,35l82 96c17,0 31,-3 47,-12 -10,-29 -122,-146 -152,-172 -131,-111 -314,-214 -493,-234l-16 -4c-8,11 -2,13 -12,16 -8,-12 -3,-8 -8,-19 -78,-5 -138,-11 -218,-4l-8 20c-25,2 -16,-4 -31,-16 -76,11 -156,28 -224,59 -14,6 -36,10 -69,26 -204,99 -382,264 -477,472l-42 101c-10,27 -3,16 5,36 -18,11 -16,-13 -33,59 -3,11 -5,23 -8,35 -6,28 -2,18 3,41l-16 15z"/>
   <path class="fil1" d="M1193 2361c44,19 164,32 218,34 178,6 359,-37 513,-121 24,-13 57,-38 77,-46 0,-13 -6,-16 0,-29 9,3 12,7 20,13 43,-23 85,-67 120,-100 55,-52 79,-91 105,-117 -9,-19 -33,-17 0,-48l20 15c31,-31 85,-143 106,-194 25,-66 37,-107 51,-174 9,-41 0,-22 10,-58l-24 -11c2,-25 4,-16 18,-18 9,-2 8,12 10,-7 4,-27 0,-11 -8,-15 -12,11 -30,-1 -38,-4 -18,271 -175,531 -381,681 -172,126 -383,196 -611,185 -40,-2 -82,-7 -120,-14 -28,-5 -89,-10 -98,24l12 4z"/>
   <path class="fil1" d="M712 1895c-20,6 -7,-1 -10,13l49 61c43,54 61,69 109,113 48,44 142,103 202,131 26,12 50,22 79,33 30,11 55,19 85,21 14,1 12,12 38,12 29,0 9,4 40,9 99,17 208,15 306,-3 153,-29 198,-63 320,-125l4 -25c21,1 1,-1 10,4 31,17 -14,1 10,6 24,-22 96,-72 116,-96 15,-17 20,-19 34,-34 143,-144 236,-382 242,-591 -44,8 -20,16 -39,128l-24 103c1,21 10,5 8,32 -29,9 -13,-17 -36,43 -19,48 -55,114 -83,155 -62,94 -145,176 -237,238 -97,67 -215,116 -339,137 -194,33 -375,0 -532,-76 -90,-43 -162,-98 -231,-165 -34,-33 -84,-86 -106,-128l-15 4z"/>
   <path class="fil1" d="M1735 1325c13,-3 20,-2 18,14 -21,0 -13,-5 -18,-14zm-52 -88c13,-7 21,1 27,10 -5,16 -10,17 -28,12l1 -22zm-19 30c15,18 28,34 42,52 16,19 28,34 43,53 10,12 35,39 42,54l76 -21c-4,-30 -86,-315 -96,-331l-53 13c3,35 54,186 66,232 -19,-5 6,12 -32,-12 2,-24 18,-2 -2,-27 -7,-8 -11,-13 -20,-24l-113 -138 -75 22 95 328c18,0 36,-8 55,-12 -2,-38 -69,-235 -70,-239l42 50z"/>
   <path class="fil1" d="M1136 1314c42,-9 60,-6 70,35 10,40 -7,56 -44,60l-26 -95zm40 281l1 -5c1,0 2,1 3,2 12,8 15,10 33,-1l-26 -96c-1,-2 -5,-16 -5,-16l3 -17c21,-7 23,6 32,18l71 91c22,-4 47,-12 65,-17 -12,-21 -36,-48 -52,-67 -16,-19 -37,-41 -50,-62 33,-51 20,-64 17,-84 -23,-134 -113,-88 -210,-62l58 205 16 2c-18,5 -14,4 -7,27l29 95c28,-1 21,-9 22,-13z"/>
   <path class="fil1" d="M584 1762l-48 -171 -101 27 14 53 42 -9 22 76c-61,27 -86,3 -107,-49 -18,-43 -34,-100 -10,-145 -9,-17 -12,-2 -10,-24 10,-1 5,0 12,3 2,0 5,2 6,2l6 4c16,-24 52,-19 83,-16l4 -56c-149,-24 -206,88 -165,222 18,56 47,104 92,123 66,27 120,-20 160,-40z"/>
   <path class="fil1" d="M1496 1314c-33,43 -61,-26 -9,-17l9 17zm-88 24l-13 -4c7,-15 7,-1 10,-10 0,-2 1,-1 2,-2l-5 -81c9,9 12,17 18,29l30 57c13,25 1,12 20,15 -7,11 -3,9 1,27l-60 16 -3 -47zm196 144c-7,-24 -33,-61 -45,-83 -15,-27 -30,-52 -45,-78 -20,-35 -29,-44 -42,-72l-33 -58c-5,-10 -6,-12 -13,-19l-79 23c-7,29 10,299 10,355 22,-4 45,-7 62,-18l-4 -87 86 -24 41 77 62 -16z"/>
   <path class="fil1" d="M543 1427l41 136c14,7 14,-1 25,16 -5,11 -13,13 -16,16 12,44 21,84 47,114 27,30 71,40 119,19 71,-33 68,-87 44,-171 -18,-64 -38,-126 -53,-189l-59 18c0,28 40,150 50,186 11,40 13,11 13,39 2,46 6,62 -43,69 -23,4 -17,14 -49,11 -2,-22 2,-27 18,-30 -11,-41 -27,-85 -39,-128l-38 -122 -60 16z"/>
   <path class="fil1" d="M919 1548c9,39 -23,30 -31,15 -12,-23 13,-28 31,-15zm84 -65c-3,-13 6,-20 18,-17 12,3 46,41 1,41l-19 -24zm-52 -70c-5,15 -9,8 -1,24 11,23 30,47 38,71l-60 17 -10 -143c13,11 8,11 15,22 9,13 -1,7 18,9zm-87 12c4,89 2,49 15,79 -11,20 -11,2 -9,32l5 152c18,1 35,-8 48,-15l10 -5c7,-19 0,-61 -1,-85l86 -22 40 77 62 -19c-7,-21 -70,-123 -87,-153 -14,-27 -29,-52 -44,-78 -13,-22 -32,-60 -46,-77l-82 24c-1,28 2,61 3,90z"/>
   <path class="fil1" d="M2130 1328c51,-9 99,-33 150,-42l-15 -55 -88 24 -24 -90 79 -26 -15 -51 -82 22 -19 -78 84 -24 -13 -52c-31,1 -115,32 -151,41l94 331z"/>
   <path class="fil1" d="M2237 942l93 327 149 -41 -14 -54 -90 25 -24 -91 78 -23c1,-21 -8,-34 -11,-54 -17,3 -32,7 -44,14 -11,6 -16,6 -39,7l-22 -74c20,-15 65,-19 86,-29l-14 -52c-28,5 -131,33 -148,45z"/>
   <path class="fil1" d="M1150 2332c26,-8 39,-5 58,-10 0,-1 2,0 3,-2 0,-1 2,-1 3,-1 -61,-18 -121,-38 -175,-63 -44,-21 -58,-35 -97,-50l-8 -7c-12,-13 -23,-18 -39,-29 -63,-43 -221,-190 -231,-241 -1,-1 -2,-2 -3,-3l-7 -6c-4,-4 -3,-3 -7,-7l-42 15c16,40 76,106 102,137l58 61c76,72 188,145 288,188 57,24 40,19 97,18z"/>
   <path class="fil1" d="M551 1315l27 -6c1,-19 -7,-17 -6,-43 13,-17 12,-2 18,-32 14,-77 34,-134 66,-204 5,-13 10,-23 17,-35 18,-33 6,-14 3,-37 33,-22 -12,36 58,-63 91,-129 217,-236 367,-299 33,-14 64,-26 99,-36 17,-5 98,-22 106,-26 -11,-30 -32,-20 -65,-12 -188,44 -308,126 -442,251 -17,16 -52,56 -64,79 -4,8 -50,54 -97,152 -43,90 -78,197 -87,311z"/>
   <path class="fil1" d="M1812 1062l14 54 64 -18 79 275 61 -15 -79 -279c29,-13 6,-23 61,-16 0,-17 -7,-40 -15,-54l-185 53z"/>
   <path class="fil1" d="M1519 1914c8,18 12,25 22,42 33,62 -3,43 -27,105 25,-14 14,-5 43,-7 13,-2 27,-6 41,-7l50 63c5,-5 2,0 5,-9 10,-26 -2,-65 20,-78 0,0 7,-3 8,-3 18,-8 46,-15 59,-26l-75 -36 -4 -83c-24,15 -41,42 -60,60l-82 -21z"/>
   <path class="fil1" d="M1295 818c-32,14 -33,-35 1,-18l-1 18zm-40 12l-77 32c15,16 64,25 74,42 10,25 -1,56 8,78l55 -61c6,-18 -9,-6 9,-17 18,12 4,7 12,24l62 16c-4,-29 -13,-22 -31,-25 1,-28 11,-12 0,-37 -14,-33 17,-32 37,-85l-85 15c-5,-9 -44,-59 -53,-63l-11 81z"/>
   <path class="fil1" d="M1464 1691c-1,0 -2,-1 -3,-2l-8 -5c-10,-7 4,-1 -10,-6l-9 18 21 18c-33,16 -48,-62 -38,-88 33,-5 40,25 47,65zm49 43c-18,-29 -15,4 -16,-44 -2,-135 -154,-132 -110,4 12,36 28,62 75,54 4,-10 -1,-9 3,-24 13,7 7,17 40,21l8 -11z"/>
   <path class="fil1" d="M1309 508c2,8 8,17 15,25 175,-16 266,-9 426,46 17,6 10,5 23,0 8,-3 1,-1 11,-4 1,-1 2,-1 3,-1 1,-1 2,-1 4,-1l9 -4c-59,-19 -104,-37 -171,-53 -1,1 -2,1 -2,3 -2,12 -12,14 -23,15l-6 -24c-98,-18 -190,-14 -289,-2z"/>
   <path class="fil1" d="M874 1844c42,-4 44,37 10,37l-10 -37zm-16 -61c33,-5 40,32 10,38 -6,-10 -11,-25 -10,-38zm-42 -15l19 61 26 87c97,-11 92,-64 65,-85l-16 -10c14,-26 10,-54 -14,-64 -26,-9 -53,6 -80,11z"/>
   <path class="fil1" d="M988 958c7,8 11,8 24,14 36,16 27,7 32,73 12,-7 32,-30 42,-41l60 13c-5,-14 -26,-46 -25,-55 0,-7 23,-38 28,-52l-59 11c-14,-14 -24,-34 -41,-45 -6,89 -7,49 -61,82z"/>
   <path class="fil1" d="M1502 803c-17,5 -44,13 -55,24l53 25 4 60c12,-4 35,-33 41,-42l61 15 -27 -54c9,-21 22,-30 29,-53 -23,3 -37,7 -60,10 -10,-16 -24,-29 -33,-45 -7,7 -7,8 -9,29 -1,11 -3,20 -4,31z"/>
   <path class="fil1" d="M1772 1841c4,8 26,49 25,55 0,10 -23,37 -28,52l63 -10c5,9 25,39 37,44l7 -57c14,-9 40,-15 55,-25 -2,-2 -3,-3 -7,-6 -50,-32 -44,8 -49,-81 -23,12 -25,35 -52,45l-51 -17z"/>
   <path class="fil1" d="M1827 613c85,31 152,101 198,126 19,11 3,7 27,29 32,29 59,66 84,91l24 -7c-20,-39 -114,-127 -151,-156 -46,-38 -107,-81 -164,-102 -10,-4 -5,-7 -25,-13l7 32z"/>
   <path class="fil1" d="M1545 1682c20,44 69,28 91,2l-9 -14 13 -8c-2,-13 -26,-107 -35,-120l-28 9c-2,36 37,90 23,122 -35,8 -33,-46 -56,-113l-31 8c2,16 25,99 32,114z"/>
   <path class="fil1" d="M1312 1974c5,15 26,45 25,55 -1,12 -24,35 -28,51 17,-2 48,-14 62,-6 9,5 22,29 36,40 8,-18 3,-44 13,-59 10,-12 6,-5 9,-20 2,-15 3,-5 9,-20 -34,-14 -15,-12 -25,-70 -9,7 -11,12 -19,21 -8,8 -15,12 -23,22l-59 -14z"/>
   <path class="fil1" d="M1711 1559c9,8 10,12 16,25 6,11 9,15 13,29l-27 5 -2 -59zm-27 120c44,-6 28,-12 32,-24 3,-13 -9,-7 14,-14 7,-2 14,-3 21,-4l16 20 27 -11 -48 -85c-10,-11 -7,-4 -14,-10 -17,-14 -6,-19 -13,-39 -48,-3 -36,28 -35,67 0,33 -1,67 0,100z"/>
   <path class="fil1" d="M1027 1737l-9 -26 -68 19 41 148c17,-1 62,-13 75,-22l-7 -24c-39,-2 -42,30 -51,-25l30 -8 -7 -26 -33 5 -6 -28 35 -13z"/>
   <path class="fil1" d="M1101 1840c54,9 91,-29 55,-73 -25,-30 -17,-11 -43,-29 -25,-16 -6,-29 28,-20l-11 -35c-25,-3 -34,-3 -48,15l-13 18c-14,50 68,60 68,81 -10,24 -25,15 -46,9l10 34z"/>
   <path class="fil1" d="M2120 1433c61,65 31,62 55,105l28 -7c1,-26 -15,-48 -15,-74 0,-25 6,-58 8,-85l-32 9 -5 48c-14,-11 -17,-22 -32,-37l-31 9 24 32z"/>
   <path class="fil1" d="M1266 1670l-7 -27c-37,3 -24,25 -30,12 0,0 -1,2 -2,2 -6,6 9,1 -3,-1 -15,-3 -35,7 -55,11l9 29 29 -7c6,26 22,92 35,119l30 -9 -32 -121 26 -8z"/>
   <path class="fil1" d="M1870 1626c12,-3 22,-5 32,-11l-9 -27 -35 9c-9,-17 -29,-93 -35,-118l-33 9 42 145c1,0 2,0 3,0 17,1 17,-1 35,-7z"/>
   <path class="fil1" d="M2071 1437l-6 -28 -91 28 8 27 30 -6 9 35c19,2 23,2 36,10 -4,21 -7,17 -23,29l11 43 33 -8 -33 -120 26 -10z"/>
   <polygon class="fil1" points="1942,1605 1975,1595 1933,1448 1900,1456 "/>
   <path class="fil1" d="M2394 1444c28,-11 23,-11 48,2l0 -51 -47 16 -1 33z"/>
  </g>
 </g>
</svg>
