<?xml version="1.0" encoding="UTF-8"?>
<!DOCTYPE svg PUBLIC "-//W3C//DTD SVG 1.1//EN" "http://www.w3.org/Graphics/SVG/1.1/DTD/svg11.dtd">
<!-- Creator: CorelDRAW X7 -->
<svg xmlns="http://www.w3.org/2000/svg" xml:space="preserve" width="4.313in" height="4.313in" version="1.1" style="shape-rendering:geometricPrecision; text-rendering:geometricPrecision; image-rendering:optimizeQuality; fill-rule:evenodd; clip-rule:evenodd"
viewBox="0 0 4313 4313"
 xmlns:xlink="http://www.w3.org/1999/xlink">
 <defs>
  <style type="text/css">
   <![CDATA[
    .fil7 {fill:none}
    .fil1 {fill:#003161}
    .fil4 {fill:#34495E}
    .fil0 {fill:#CCCCCC}
    .fil3 {fill:#ECF0F1}
    .fil2 {fill:#F0210E}
    .fil6 {fill:#FF7B00}
    .fil5 {fill:yellow}
   ]]>
  </style>
   <clipPath id="id0">
    <path d="M3610 1237l-1544 416c-12,-15 -7,-8 -8,-36l-43 10c0,-39 -2,-35 -12,-45l-169 106 0 92 169 22c12,-19 11,-22 12,-51l40 -16c6,-21 -2,-16 11,-42l1401 -378c201,-54 160,-64 269,18 25,19 28,35 79,19 -26,-38 -60,-25 -74,-69 68,10 52,76 149,50 -22,-43 -52,-34 -73,-70 43,8 73,69 123,57 -16,-27 -32,-15 -46,-50 85,17 5,60 157,20l-83 -70c51,13 67,54 118,60 -19,-33 -33,-10 -39,-46 72,6 -1,64 155,14 -20,-31 -73,-31 -77,-74 110,37 35,88 183,46l-24 -30c-24,-26 -57,-47 -74,-75l86 -24 1 -37 -84 20c19,-48 75,-106 100,-154 -122,12 -98,65 -187,145 1,-28 16,-38 38,-63 20,-23 27,-33 44,-56 -161,34 -81,49 -161,101 5,-35 24,-30 44,-70 -37,16 -79,94 -121,129 23,-45 64,-81 84,-120 -41,12 -71,12 -97,39 -24,25 -32,46 -64,70 11,-31 4,-16 25,-44 9,-12 20,-26 27,-33 -51,8 -83,91 -128,125 19,-46 60,-69 78,-113 -112,29 -90,107 -156,132 10,-28 56,-80 81,-111 -97,18 -104,157 -210,186z"/>
   </clipPath>
 </defs>
 <g id="Layer_x0020_1">
  <metadata id="CorelCorpID_0Corel-Layer"/>
  <ellipse class="fil0" cx="1843" cy="3881" rx="1843" ry="293"/>
  <rect class="fil1" x="1668" y="2911" width="322" height="816"/>
  <g id="_689068256">
   <rect class="fil1" transform="matrix(2.19437 -0 -0.644377 2.37499 912.67 2589.65)" width="240" height="583"/>
   <rect class="fil1" transform="matrix(-2.19437 -0 0.644377 2.37499 2744.81 2589.65)" width="240" height="583"/>
  </g>
  <circle class="fil2" cx="1829" cy="1726" r="1587"/>
  <circle class="fil3" cx="1829" cy="1726" r="1353"/>
  <circle class="fil2" cx="1829" cy="1726" r="1086"/>
  <circle class="fil3" cx="1829" cy="1726" r="830"/>
  <circle class="fil2" cx="1829" cy="1726" r="586"/>
  <circle class="fil3" cx="1829" cy="1726" r="354"/>
  <circle class="fil1" cx="1829" cy="1726" r="178"/>
  <path class="fil4" d="M3610 1237l-1544 416c-12,-15 -7,-8 -8,-36l-43 10c0,-39 -2,-35 -12,-45l-169 106 0 92 169 22c12,-19 11,-22 12,-51l40 -16c6,-21 -2,-16 11,-42l1401 -378c201,-54 160,-64 269,18 25,19 28,35 79,19 -26,-38 -60,-25 -74,-69 68,10 52,76 149,50 -22,-43 -52,-34 -73,-70 43,8 73,69 123,57 -16,-27 -32,-15 -46,-50 85,17 5,60 157,20l-83 -70c51,13 67,54 118,60 -19,-33 -33,-10 -39,-46 72,6 -1,64 155,14 -20,-31 -73,-31 -77,-74 110,37 35,88 183,46l-24 -30c-24,-26 -57,-47 -74,-75l86 -24 1 -37 -84 20c19,-48 75,-106 100,-154 -122,12 -98,65 -187,145 1,-28 16,-38 38,-63 20,-23 27,-33 44,-56 -161,34 -81,49 -161,101 5,-35 24,-30 44,-70 -37,16 -79,94 -121,129 23,-45 64,-81 84,-120 -41,12 -71,12 -97,39 -24,25 -32,46 -64,70 11,-31 4,-16 25,-44 9,-12 20,-26 27,-33 -51,8 -83,91 -128,125 19,-46 60,-69 78,-113 -112,29 -90,107 -156,132 10,-28 56,-80 81,-111 -97,18 -104,157 -210,186z"/>
  <g style="clip-path:url(#id0)">
   <g id="_689062808">
    <rect class="fil5" transform="matrix(2.37499 -0.64045 -0 2.37499 1134.93 1479.87)" width="394" height="369"/>
    <rect class="fil6" transform="matrix(2.37499 -0.64045 -0 2.37499 3635.15 835.53)" width="394" height="369"/>
   </g>
  </g>
  <path class="fil7" d="M3610 1237l-1544 416c-12,-15 -7,-8 -8,-36l-43 10c0,-39 -2,-35 -12,-45l-169 106 0 92 169 22c12,-19 11,-22 12,-51l40 -16c6,-21 -2,-16 11,-42l1401 -378c201,-54 160,-64 269,18 25,19 28,35 79,19 -26,-38 -60,-25 -74,-69 68,10 52,76 149,50 -22,-43 -52,-34 -73,-70 43,8 73,69 123,57 -16,-27 -32,-15 -46,-50 85,17 5,60 157,20l-83 -70c51,13 67,54 118,60 -19,-33 -33,-10 -39,-46 72,6 -1,64 155,14 -20,-31 -73,-31 -77,-74 110,37 35,88 183,46l-24 -30c-24,-26 -57,-47 -74,-75l86 -24 1 -37 -84 20c19,-48 75,-106 100,-154 -122,12 -98,65 -187,145 1,-28 16,-38 38,-63 20,-23 27,-33 44,-56 -161,34 -81,49 -161,101 5,-35 24,-30 44,-70 -37,16 -79,94 -121,129 23,-45 64,-81 84,-120 -41,12 -71,12 -97,39 -24,25 -32,46 -64,70 11,-31 4,-16 25,-44 9,-12 20,-26 27,-33 -51,8 -83,91 -128,125 19,-46 60,-69 78,-113 -112,29 -90,107 -156,132 10,-28 56,-80 81,-111 -97,18 -104,157 -210,186z"/>
 </g>
</svg>
