<?xml version="1.0" encoding="UTF-8"?>
<!DOCTYPE svg PUBLIC "-//W3C//DTD SVG 1.1//EN" "http://www.w3.org/Graphics/SVG/1.1/DTD/svg11.dtd">
<!-- Creator: CorelDRAW X7 -->
<svg xmlns="http://www.w3.org/2000/svg" xml:space="preserve" width="6in" height="1.5in" version="1.1" style="shape-rendering:geometricPrecision; text-rendering:geometricPrecision; image-rendering:optimizeQuality; fill-rule:evenodd; clip-rule:evenodd"
viewBox="0 0 6000 1500"
 xmlns:xlink="http://www.w3.org/1999/xlink">
 <defs>
  <style type="text/css">
   <![CDATA[
    .str0 {stroke:#FCA165;stroke-width:41.6654}
    .fil4 {fill:none}
    .fil3 {fill:#FCA165}
    .fil0 {fill:#FFF0F0}
    .fil2 {fill:black;fill-rule:nonzero}
    .fil1 {fill:#FCA165;fill-rule:nonzero}
   ]]>
  </style>
 </defs>
 <g id="Layer_x0020_1">
  <metadata id="CorelCorpID_0Corel-Layer"/>
  <g id="_682700448">
   <rect class="fil0" x="2164" y="216" width="1406" height="289" rx="983" ry="484"/>
   <path class="fil1" d="M2308 206l1117 0c43,0 81,17 110,46 28,28 45,66 45,109l0 0c0,42 -17,81 -45,109 -29,28 -67,46 -110,46l-1117 0c-42,0 -81,-18 -109,-46 -28,-28 -45,-67 -45,-109l0 0c0,-43 17,-81 45,-109 28,-29 67,-46 109,-46zm1117 20l-1117 0c-37,0 -70,15 -95,40 -24,24 -39,58 -39,95l0 0c0,37 15,70 39,95 25,24 58,39 95,39l1117 0c37,0 71,-15 95,-39 25,-25 40,-58 40,-95l0 0c0,-37 -15,-71 -40,-95 -24,-25 -58,-40 -95,-40z"/>
   <path class="fil2" d="M2365 363c0,14 -5,26 -13,35 -9,9 -20,14 -34,14 -14,0 -25,-5 -33,-14 -8,-9 -13,-21 -13,-35l0 -20c0,-14 5,-26 13,-35 8,-10 19,-14 33,-14 14,0 25,4 34,14 8,9 13,20 13,35l0 20zm-16 -20c0,-11 -3,-20 -8,-26 -6,-7 -14,-10 -23,-10 -9,0 -17,3 -22,10 -5,6 -8,15 -8,26l0 20c0,11 3,19 8,26 5,7 13,10 22,10 9,0 17,-3 23,-10 5,-7 8,-15 8,-26l0 -20z"/>
   <path id="1" class="fil2" d="M2458 371c0,12 -3,22 -9,29 -6,8 -14,12 -25,12 -5,0 -10,-1 -13,-3 -4,-2 -8,-4 -11,-8l0 42 -15 0 0 -118 12 0 2 11c3,-4 6,-7 11,-10 4,-2 9,-3 14,-3 11,0 19,4 25,13 6,8 9,19 9,33l0 2zm-16 -2c0,-10 -2,-18 -6,-24 -4,-6 -9,-9 -17,-9 -4,0 -8,1 -11,3 -3,2 -6,5 -8,8l0 41c2,4 5,6 8,8 3,2 7,3 12,3 7,0 13,-2 16,-8 4,-5 6,-12 6,-20l0 -2z"/>
   <path id="2" class="fil2" d="M2512 412c-12,0 -21,-4 -28,-12 -7,-8 -11,-18 -11,-31l0 -3c0,-13 4,-23 11,-31 7,-8 16,-12 26,-12 11,0 20,4 26,11 6,7 9,16 9,27l0 10 -56 0 0 0c0,9 2,15 6,21 4,5 10,7 17,7 5,0 10,0 14,-2 4,-1 7,-3 10,-6l6 10c-3,3 -7,6 -12,8 -5,2 -11,3 -18,3zm-2 -77c-6,0 -10,3 -14,7 -3,4 -6,10 -6,16l0 1 39 0 0 -2c0,-6 -2,-11 -5,-15 -3,-5 -8,-7 -14,-7z"/>
   <path id="3" class="fil2" d="M2602 339l-8 -1c-4,0 -7,1 -10,3 -3,2 -5,5 -6,8l0 61 -16 0 0 -85 14 0 1 12c3,-4 6,-8 9,-10 4,-3 8,-4 13,-4 1,0 2,0 3,0 1,1 2,1 3,1l-3 15z"/>
   <path id="4" class="fil2" d="M2670 410c-1,-3 -1,-5 -1,-7 -1,-2 -1,-4 -1,-6 -3,4 -7,8 -11,11 -5,2 -10,4 -15,4 -9,0 -16,-3 -21,-7 -4,-5 -7,-11 -7,-19 0,-8 4,-14 10,-19 7,-5 16,-7 27,-7l17 0 0 -8c0,-5 -1,-9 -4,-12 -4,-3 -8,-5 -13,-5 -5,0 -9,2 -13,4 -3,3 -4,6 -4,9l-15 0 0 0c-1,-6 2,-12 8,-17 7,-5 15,-8 24,-8 10,0 18,3 24,8 6,4 9,12 9,21l0 41c0,3 0,6 0,9 0,3 1,5 2,8l-16 0zm-26 -11c6,0 11,-2 15,-5 5,-3 8,-6 9,-10l0 -13 -17 0c-7,0 -12,1 -15,4 -4,3 -6,7 -6,11 0,4 1,7 4,9 2,3 5,4 10,4z"/>
   <path id="5" class="fil2" d="M2727 304l0 21 16 0 0 11 -16 0 0 52c0,4 0,7 2,8 2,2 4,3 7,3 1,0 2,0 3,-1 1,0 2,0 3,0l2 10c-2,1 -3,2 -5,3 -3,0 -5,1 -7,1 -7,0 -12,-2 -15,-6 -4,-4 -6,-10 -6,-18l0 -52 -13 0 0 -11 13 0 0 -21 16 0z"/>
   <path id="6" class="fil2" d="M2779 410l-16 0 0 -85 16 0 0 85zm0 -107l-16 0 0 -16 16 0 0 16z"/>
   <path id="7" class="fil2" d="M2817 325l1 13c2,-5 6,-9 10,-11 5,-3 10,-4 15,-4 9,0 16,3 21,8 5,6 8,14 8,25l0 54 -16 0 0 -53c0,-8 -1,-13 -4,-16 -3,-4 -8,-5 -14,-5 -4,0 -8,1 -12,3 -3,2 -6,5 -8,9l0 62 -15 0 0 -85 14 0z"/>
   <path id="8" class="fil2" d="M2891 369c0,-14 3,-25 9,-33 6,-9 14,-13 25,-13 5,0 10,1 14,3 4,3 8,6 10,10l2 -11 13 0 0 86c0,10 -4,19 -10,25 -6,6 -15,8 -27,8 -4,0 -9,0 -14,-1 -4,-1 -9,-3 -12,-5l4 -12c2,2 6,3 10,4 4,1 8,1 11,1 8,0 14,-1 17,-5 3,-3 5,-8 5,-15l0 -10c-3,3 -6,6 -10,8 -4,2 -8,3 -13,3 -11,0 -19,-4 -25,-12 -6,-7 -9,-17 -9,-29l0 -2zm16 2c0,8 1,15 5,20 4,5 9,8 17,8 4,0 8,-1 11,-3 3,-2 6,-5 8,-9l0 -39c-2,-4 -4,-7 -8,-9 -3,-2 -7,-3 -11,-3 -8,0 -13,3 -17,9 -4,6 -5,14 -5,24l0 2z"/>
   <path id="9" class="fil2" d="M3045 364l0 46 -16 0 0 -115 44 0c12,0 22,3 29,10 7,6 10,14 10,25 0,10 -3,18 -10,25 -7,6 -17,9 -29,9l-28 0zm0 -12l28 0c8,0 14,-2 18,-6 3,-5 5,-10 5,-16 0,-7 -2,-12 -5,-16 -4,-4 -10,-6 -18,-6l-28 0 0 44z"/>
   <path id="10" class="fil2" d="M3147 410l-16 0 0 -85 16 0 0 85zm0 -107l-16 0 0 -16 16 0 0 16z"/>
   <polygon id="11" class="fil2" points="3187,410 3172,410 3172,287 3187,287 "/>
   <polygon id="12" class="fil2" points="3228,410 3212,410 3212,287 3228,287 "/>
   <path id="13" class="fil2" d="M3304 410c0,-3 -1,-5 -1,-7 0,-2 0,-4 0,-6 -3,4 -7,8 -12,11 -4,2 -9,4 -15,4 -9,0 -15,-3 -20,-7 -5,-5 -7,-11 -7,-19 0,-8 3,-14 10,-19 6,-5 15,-7 27,-7l17 0 0 -8c0,-5 -2,-9 -5,-12 -3,-3 -7,-5 -13,-5 -5,0 -9,2 -12,4 -3,3 -5,6 -5,9l-15 0 0 0c0,-6 3,-12 9,-17 6,-5 14,-8 24,-8 10,0 17,3 23,8 6,4 9,12 9,21l0 41c0,3 0,6 1,9 0,3 0,5 1,8l-16 0zm-25 -11c5,0 10,-2 15,-5 4,-3 7,-6 9,-10l0 -13 -18 0c-6,0 -11,1 -15,4 -4,3 -5,7 -5,11 0,4 1,7 3,9 2,3 6,4 11,4z"/>
   <path id="14" class="fil2" d="M3381 339l-8 -1c-4,0 -7,1 -10,3 -3,2 -5,5 -7,8l0 61 -15 0 0 -85 14 0 1 12c2,-4 5,-8 9,-10 4,-3 8,-4 12,-4 1,0 3,0 4,0 1,1 1,1 2,1l-2 15z"/>
   <path id="15" class="fil2" d="M3446 387c0,-3 -2,-6 -4,-8 -3,-2 -8,-4 -15,-6 -10,-2 -18,-5 -23,-9 -6,-4 -8,-9 -8,-16 0,-7 3,-13 9,-17 5,-5 13,-8 23,-8 10,0 17,3 23,8 6,5 9,11 9,18l0 1 -15 0c0,-4 -2,-7 -5,-10 -3,-3 -7,-5 -12,-5 -6,0 -10,2 -13,4 -2,3 -4,5 -4,9 0,3 1,6 4,8 2,2 7,3 14,5 11,2 19,5 24,9 6,4 8,10 8,16 0,8 -3,14 -9,19 -6,4 -14,7 -24,7 -11,0 -19,-3 -26,-9 -6,-5 -9,-12 -9,-19l1 0 14 0c1,5 3,9 7,12 3,2 8,3 13,3 6,0 10,-1 13,-3 3,-2 5,-5 5,-9z"/>
   <circle class="fil3" cx="2867" cy="507" r="34"/>
   <rect class="fil0" x="137" y="1014" width="1164" height="270" rx="814" ry="452"/>
   <path class="fil1" d="M272 1004l894 0c40,0 76,16 102,43 27,26 43,62 43,102l0 0c0,40 -16,76 -43,102 -26,27 -62,43 -102,43l-894 0c-40,0 -76,-16 -103,-43 -26,-26 -42,-62 -42,-102l0 0c0,-40 16,-76 42,-102 27,-27 63,-43 103,-43zm894 20l-894 0c-35,0 -66,14 -88,37 -23,22 -37,54 -37,88l0 0c0,34 14,65 37,88 22,23 53,37 88,37l894 0c34,0 65,-14 88,-37 23,-23 37,-54 37,-88l0 0c0,-34 -14,-66 -37,-88 -23,-23 -54,-37 -88,-37z"/>
   <path class="fil2" d="M286 1161c0,7 -1,14 -4,20 -3,7 -6,12 -11,17l19 18 -10 10 -22 -20c-3,1 -6,2 -9,3 -3,0 -7,1 -10,1 -13,0 -24,-5 -33,-14 -8,-10 -12,-21 -12,-35l0 -21c0,-14 4,-25 12,-35 9,-9 20,-13 33,-13 14,0 25,4 34,13 9,10 13,21 13,35l0 21zm-16 -21c0,-10 -2,-19 -8,-25 -6,-7 -13,-10 -23,-10 -9,0 -16,3 -22,10 -5,6 -8,15 -8,25l0 21c0,10 3,19 8,26 6,6 13,10 22,10 10,0 17,-4 23,-10 6,-7 8,-16 8,-26l0 -21z"/>
   <path id="1" class="fil2" d="M360 1195c-2,5 -6,8 -10,11 -4,2 -9,4 -15,4 -9,0 -16,-3 -21,-9 -5,-6 -8,-16 -8,-28l0 -50 15 0 0 50c0,9 2,15 4,19 3,3 7,5 13,5 6,0 10,-1 14,-3 3,-3 6,-6 8,-10l0 -61 15 0 0 85 -14 0 -1 -13z"/>
   <path id="2" class="fil2" d="M450 1208c0,-3 0,-5 -1,-7 0,-2 0,-4 0,-6 -3,4 -7,8 -12,10 -4,3 -9,5 -15,5 -9,0 -15,-3 -20,-7 -5,-5 -7,-11 -7,-19 0,-8 3,-15 10,-19 7,-5 16,-7 27,-7l17 0 0 -9c0,-4 -2,-8 -5,-11 -3,-3 -7,-5 -13,-5 -5,0 -9,2 -12,4 -3,3 -5,6 -5,9l-14 0 -1 0c0,-6 3,-12 9,-17 6,-5 14,-8 24,-8 10,0 18,3 23,7 6,5 9,12 9,22l0 41c0,3 0,6 1,9 0,2 1,5 1,8l-16 0zm-25 -12c5,0 10,-1 15,-4 4,-3 7,-6 9,-10l0 -14 -18 0c-6,0 -11,2 -15,5 -3,3 -5,7 -5,11 0,4 1,7 3,9 3,2 6,3 11,3z"/>
   <polygon id="3" class="fil2" points="504,1208 488,1208 488,1085 504,1085 "/>
   <path id="4" class="fil2" d="M544 1208l-15 0 0 -85 15 0 0 85zm0 -107l-15 0 0 -16 15 0 0 16z"/>
   <path id="5" class="fil2" d="M589 1102l0 21 16 0 0 11 -16 0 0 52c0,4 0,6 2,8 2,2 4,2 7,2 1,0 2,0 3,0 1,0 2,0 3,-1l2 11c-2,1 -3,2 -5,3 -3,0 -5,1 -7,1 -6,0 -12,-2 -15,-6 -4,-4 -6,-10 -6,-18l0 -52 -13 0 0 -11 13 0 0 -21 16 0z"/>
   <path id="6" class="fil2" d="M650 1176l3 11 0 0 21 -64 18 0 -36 98c-2,6 -6,11 -10,15 -4,4 -9,6 -16,6 -1,0 -3,0 -5,0 -2,0 -3,-1 -4,-1l1 -12c0,0 1,0 3,0 2,0 4,0 4,0 4,0 6,-1 8,-4 3,-3 4,-6 6,-10l3 -9 -31 -83 17 0 18 53z"/>
   <path id="7" class="fil2" d="M742 1164c0,-12 3,-23 10,-31 7,-8 16,-12 28,-12 12,0 21,4 28,12 7,8 10,19 10,31l0 2c0,13 -3,23 -10,31 -7,9 -16,13 -28,13 -12,0 -21,-5 -28,-13 -7,-8 -10,-18 -10,-31l0 -2zm15 2c0,9 2,17 6,22 4,6 9,9 17,9 7,0 13,-3 17,-9 4,-5 6,-13 6,-22l0 -2c0,-8 -2,-16 -6,-22 -4,-6 -10,-9 -17,-9 -8,0 -13,3 -17,9 -4,6 -6,14 -6,22l0 2z"/>
   <path id="8" class="fil2" d="M844 1208l0 -74 -14 0 0 -11 14 0 0 -11c0,-9 2,-16 7,-21 4,-5 11,-8 20,-8 1,0 3,0 5,1 2,0 4,0 6,1l-2 12c-1,0 -2,-1 -3,-1 -2,0 -3,0 -4,0 -5,0 -8,1 -11,4 -2,3 -3,7 -3,12l0 11 18 0 0 11 -18 0 0 74 -15 0z"/>
   <path id="9" class="fil2" d="M1017 1171l0 0c0,11 -3,20 -11,28 -8,7 -18,11 -31,11 -13,0 -24,-5 -32,-14 -8,-9 -12,-21 -12,-35l0 -21c0,-14 4,-25 12,-35 8,-9 19,-13 32,-13 13,0 23,3 31,10 8,7 11,16 11,27l0 1 -15 0c0,-8 -2,-15 -7,-19 -5,-5 -11,-7 -20,-7 -9,0 -16,3 -21,10 -5,7 -7,16 -7,26l0 21c0,10 2,19 7,26 5,7 12,10 21,10 9,0 15,-2 20,-7 5,-4 7,-11 7,-19l15 0z"/>
   <path id="10" class="fil2" d="M1051 1134c3,-4 6,-7 11,-10 4,-2 9,-3 14,-3 9,0 16,3 21,8 5,6 8,14 8,25l0 54 -16 0 0 -54c0,-7 -1,-12 -4,-15 -3,-4 -8,-5 -14,-5 -4,0 -8,1 -12,3 -3,2 -6,4 -8,8l0 63 -16 0 0 -123 16 0 0 49z"/>
   <path id="11" class="fil2" d="M1179 1208c0,-3 0,-5 -1,-7 0,-2 0,-4 0,-6 -3,4 -7,8 -12,10 -4,3 -9,5 -15,5 -8,0 -15,-3 -20,-7 -5,-5 -7,-11 -7,-19 0,-8 3,-15 10,-19 7,-5 16,-7 27,-7l17 0 0 -9c0,-4 -2,-8 -5,-11 -3,-3 -7,-5 -13,-5 -5,0 -9,2 -12,4 -3,3 -5,6 -5,9l-14 0 -1 0c0,-6 3,-12 9,-17 6,-5 14,-8 24,-8 10,0 18,3 23,7 6,5 9,12 9,22l0 41c0,3 0,6 1,9 0,2 1,5 1,8l-16 0zm-25 -12c5,0 10,-1 15,-4 4,-3 7,-6 9,-10l0 -14 -18 0c-6,0 -11,2 -15,5 -3,3 -5,7 -5,11 0,4 1,7 3,9 3,2 6,3 11,3z"/>
   <path id="12" class="fil2" d="M1233 1208l-16 0 0 -85 16 0 0 85zm0 -107l-16 0 0 -16 16 0 0 16z"/>
   <circle class="fil3" cx="713" cy="1014" r="34"/>
   <rect class="fil0" x="3007" y="1014" width="985" height="270" rx="688" ry="452"/>
   <path class="fil1" d="M3142 1004l715 0c40,0 76,16 102,43 27,26 43,62 43,102l0 0c0,40 -16,76 -43,102 -26,27 -62,43 -102,43l-715 0c-40,0 -76,-16 -102,-43 -27,-26 -43,-62 -43,-102l0 0c0,-40 16,-76 43,-102 26,-27 62,-43 102,-43zm715 20l-715 0c-34,0 -65,14 -88,37 -23,22 -37,54 -37,88l0 0c0,34 14,65 37,88 23,23 54,37 88,37l715 0c34,0 66,-14 88,-37 23,-23 37,-54 37,-88l0 0c0,-34 -14,-66 -37,-88 -22,-23 -54,-37 -88,-37z"/>
   <path class="fil2" d="M3176 1171l0 0c0,11 -3,20 -11,28 -8,7 -18,11 -31,11 -13,0 -24,-5 -32,-14 -8,-9 -12,-21 -12,-35l0 -21c0,-14 4,-25 12,-35 8,-9 19,-13 32,-13 13,0 23,3 31,10 8,7 11,16 11,27l0 1 -15 0c0,-8 -2,-15 -7,-19 -5,-5 -11,-7 -20,-7 -9,0 -16,3 -21,10 -5,7 -7,16 -7,26l0 21c0,10 2,19 7,26 5,7 12,10 21,10 9,0 15,-2 20,-7 5,-4 7,-11 7,-19l15 0z"/>
   <polygon id="1" class="fil2" points="3211,1208 3196,1208 3196,1085 3211,1085 "/>
   <path id="2" class="fil2" d="M3270 1210c-12,0 -21,-4 -28,-12 -7,-8 -11,-18 -11,-31l0 -4c0,-12 4,-22 11,-30 8,-8 16,-12 26,-12 11,0 20,4 26,10 6,7 9,17 9,28l0 10 -55 0 -1 0c0,8 3,15 7,20 4,6 9,8 16,8 6,0 10,0 14,-2 4,-1 8,-4 10,-6l7 10c-4,3 -8,5 -13,8 -5,2 -11,3 -18,3zm-2 -77c-5,0 -10,3 -13,7 -4,4 -6,10 -7,16l0 1 39 0 0 -2c0,-6 -1,-12 -5,-16 -3,-4 -8,-6 -14,-6z"/>
   <path id="3" class="fil2" d="M3373 1208c-1,-3 -1,-5 -1,-7 -1,-2 -1,-4 -1,-6 -3,4 -7,8 -11,10 -5,3 -10,5 -15,5 -9,0 -16,-3 -21,-7 -4,-5 -7,-11 -7,-19 0,-8 4,-15 10,-19 7,-5 16,-7 27,-7l17 0 0 -9c0,-4 -1,-8 -5,-11 -3,-3 -7,-5 -12,-5 -5,0 -10,2 -13,4 -3,3 -4,6 -4,9l-15 0 0 0c-1,-6 2,-12 8,-17 7,-5 15,-8 24,-8 10,0 18,3 24,7 6,5 9,12 9,22l0 41c0,3 0,6 0,9 0,2 1,5 2,8l-16 0zm-26 -12c6,0 11,-1 15,-4 5,-3 8,-6 9,-10l0 -14 -17 0c-7,0 -12,2 -15,5 -4,3 -6,7 -6,11 0,4 1,7 4,9 2,2 5,3 10,3z"/>
   <path id="4" class="fil2" d="M3423 1123l1 12c3,-4 6,-8 11,-10 4,-3 9,-4 14,-4 10,0 17,3 22,8 5,6 7,14 7,25l0 54 -15 0 0 -54c0,-7 -2,-12 -5,-16 -3,-3 -7,-4 -13,-4 -5,0 -9,1 -12,3 -4,2 -6,5 -8,9l0 62 -16 0 0 -85 14 0z"/>
   <polygon id="5" class="fil2" points="3518,1208 3502,1208 3502,1085 3518,1085 "/>
   <path id="6" class="fil2" d="M3558 1208l-15 0 0 -85 15 0 0 85zm0 -107l-15 0 0 -16 15 0 0 16z"/>
   <path id="7" class="fil2" d="M3596 1123l1 12c3,-4 7,-8 11,-10 4,-3 9,-4 15,-4 9,0 16,3 21,8 5,6 7,14 7,25l0 54 -15 0 0 -54c0,-7 -2,-12 -4,-16 -3,-3 -8,-4 -14,-4 -5,0 -9,1 -12,3 -3,2 -6,5 -8,9l0 62 -16 0 0 -85 14 0z"/>
   <path id="8" class="fil2" d="M3709 1210c-11,0 -21,-4 -28,-12 -7,-8 -10,-18 -10,-31l0 -4c0,-12 3,-22 10,-30 8,-8 16,-12 26,-12 12,0 20,4 26,10 6,7 9,17 9,28l0 10 -55 0 -1 0c1,8 3,15 7,20 4,6 9,8 16,8 6,0 10,0 14,-2 4,-1 8,-4 11,-6l6 10c-3,3 -7,5 -12,8 -5,2 -11,3 -19,3zm-2 -77c-5,0 -10,3 -13,7 -4,4 -6,10 -7,16l0 1 39 0 0 -2c0,-6 -1,-12 -4,-16 -4,-4 -8,-6 -15,-6z"/>
   <path id="9" class="fil2" d="M3809 1185c0,-3 -1,-6 -4,-8 -2,-2 -7,-4 -15,-6 -10,-2 -18,-5 -23,-9 -5,-4 -8,-9 -8,-16 0,-7 3,-13 9,-18 6,-4 14,-7 23,-7 10,0 18,3 24,8 6,5 8,11 8,18l0 1 -15 0c0,-4 -1,-7 -5,-10 -3,-3 -7,-5 -12,-5 -6,0 -10,2 -12,4 -3,2 -4,5 -4,9 0,3 1,6 3,8 3,2 7,3 15,5 10,2 18,5 24,9 5,4 8,9 8,16 0,8 -3,14 -10,19 -6,4 -14,7 -24,7 -11,0 -19,-3 -25,-9 -7,-5 -10,-12 -9,-19l0 -1 15 0c0,6 2,10 6,12 4,3 8,4 13,4 6,0 10,-1 13,-3 3,-2 5,-5 5,-9z"/>
   <path id="10" class="fil2" d="M3894 1185c0,-3 -2,-6 -4,-8 -3,-2 -8,-4 -15,-6 -11,-2 -18,-5 -24,-9 -5,-4 -7,-9 -7,-16 0,-7 3,-13 8,-18 6,-4 14,-7 23,-7 10,0 18,3 24,8 6,5 9,11 9,18l-1 1 -14 0c0,-4 -2,-7 -5,-10 -3,-3 -7,-5 -13,-5 -5,0 -9,2 -12,4 -3,2 -4,5 -4,9 0,3 1,6 4,8 2,2 7,3 14,5 11,2 19,5 24,9 5,4 8,9 8,16 0,8 -3,14 -9,19 -6,4 -14,7 -24,7 -11,0 -20,-3 -26,-9 -6,-5 -9,-12 -9,-19l0 -1 15 0c0,6 3,10 6,12 4,3 9,4 14,4 5,0 10,-1 13,-3 3,-2 5,-5 5,-9z"/>
   <circle class="fil3" cx="3494" cy="1014" r="34"/>
   <rect class="fil0" x="4179" y="1014" width="1684" height="270" rx="1178" ry="452"/>
   <path class="fil1" d="M4314 1004l1414 0c40,0 76,16 103,43 26,26 42,62 42,102l0 0c0,40 -16,76 -42,102 -27,27 -63,43 -103,43l-1414 0c-40,0 -77,-16 -103,-43 -26,-26 -42,-62 -42,-102l0 0c0,-40 16,-76 42,-102 26,-27 63,-43 103,-43zm1414 20l-1414 0c-35,0 -66,14 -89,37 -22,22 -36,54 -36,88l0 0c0,34 14,65 36,88 23,23 54,37 89,37l1414 0c35,0 66,-14 88,-37 23,-23 37,-54 37,-88l0 0c0,-34 -14,-66 -37,-88 -22,-23 -53,-37 -88,-37z"/>
   <polygon class="fil2" points="4335,1155 4282,1155 4282,1196 4343,1196 4343,1208 4266,1208 4266,1093 4342,1093 4342,1105 4282,1105 4282,1143 4335,1143 "/>
   <path id="1" class="fil2" d="M4378 1102l0 21 17 0 0 11 -17 0 0 52c0,4 1,6 3,8 2,2 4,2 6,2 1,0 2,0 3,0 1,0 2,0 3,-1l2 11c-1,1 -3,2 -5,3 -2,0 -4,1 -6,1 -7,0 -12,-2 -16,-6 -3,-4 -5,-10 -5,-18l0 -52 -14 0 0 -11 14 0 0 -21 15 0z"/>
   <path id="2" class="fil2" d="M4429 1134c3,-4 7,-7 11,-10 4,-2 9,-3 14,-3 9,0 16,3 22,8 5,6 7,14 7,25l0 54 -15 0 0 -54c0,-7 -2,-12 -5,-15 -3,-4 -7,-5 -13,-5 -5,0 -9,1 -12,3 -4,2 -7,4 -9,8l0 63 -15 0 0 -123 15 0 0 49z"/>
   <path id="3" class="fil2" d="M4522 1208l-15 0 0 -85 15 0 0 85zm0 -107l-15 0 0 -16 15 0 0 16z"/>
   <path id="4" class="fil2" d="M4581 1197c5,0 10,-1 13,-4 4,-4 6,-8 6,-12l14 0 0 0c1,8 -3,14 -9,20 -7,6 -15,9 -24,9 -13,0 -22,-4 -29,-13 -6,-8 -9,-18 -9,-30l0 -3c0,-13 3,-23 9,-31 7,-8 17,-12 29,-12 10,0 18,3 24,9 7,6 10,13 10,22l-1 0 -14 0c0,-5 -2,-10 -5,-13 -4,-4 -9,-6 -14,-6 -8,0 -14,3 -18,9 -3,6 -5,13 -5,22l0 3c0,9 2,16 5,22 4,5 10,8 18,8z"/>
   <path id="5" class="fil2" d="M4681 1185c0,-3 -1,-6 -3,-8 -3,-2 -8,-4 -15,-6 -11,-2 -18,-5 -24,-9 -5,-4 -7,-9 -7,-16 0,-7 3,-13 8,-18 6,-4 14,-7 23,-7 10,0 18,3 24,8 6,5 9,11 9,18l-1 1 -14 0c0,-4 -2,-7 -5,-10 -3,-3 -7,-5 -13,-5 -5,0 -9,2 -12,4 -3,2 -4,5 -4,9 0,3 1,6 4,8 2,2 7,3 14,5 11,2 19,5 24,9 5,4 8,9 8,16 0,8 -3,14 -9,19 -6,4 -14,7 -24,7 -11,0 -20,-3 -26,-9 -6,-5 -9,-12 -9,-19l0 -1 15 0c0,6 3,10 6,12 4,3 9,4 14,4 5,0 10,-1 13,-3 3,-2 4,-5 4,-9z"/>
   <path id="6" class="fil2" d="M4750 1177c0,-6 2,-12 6,-17 4,-5 9,-9 16,-14 -4,-5 -7,-10 -9,-14 -2,-4 -3,-8 -3,-13 0,-9 3,-15 8,-20 5,-5 12,-7 21,-7 8,0 15,2 20,7 6,4 8,10 8,17 0,5 -1,10 -4,13 -3,4 -7,8 -12,12l-9 6 27 32c2,-3 4,-7 5,-11 1,-4 2,-9 2,-13l14 0c0,7 -1,13 -3,19 -2,6 -5,11 -9,16l14 18 0 0 -18 0 -7 -8c-4,3 -8,5 -14,7 -5,2 -10,3 -15,3 -12,0 -21,-3 -28,-10 -6,-6 -10,-13 -10,-23zm38 20c3,0 7,0 11,-2 3,-1 7,-3 10,-5l-28 -34 -3 2c-5,4 -8,7 -10,10 -1,3 -2,6 -2,9 0,6 2,11 5,15 4,3 10,5 17,5zm-12 -78c0,3 0,6 2,9 1,3 3,6 6,10l11 -8c3,-2 5,-4 6,-6 1,-3 2,-5 2,-8 0,-3 -1,-6 -4,-9 -2,-2 -6,-3 -10,-3 -4,0 -7,1 -10,4 -2,3 -3,7 -3,11z"/>
   <polygon id="7" class="fil2" points="4968,1155 4916,1155 4916,1196 4976,1196 4976,1208 4900,1208 4900,1093 4975,1093 4975,1105 4916,1105 4916,1143 4968,1143 "/>
   <path id="8" class="fil2" d="M5005 1123l2 12c2,-4 6,-8 10,-10 5,-3 9,-4 15,-4 9,0 16,3 21,8 5,6 8,14 8,25l0 54 -16 0 0 -54c0,-7 -1,-12 -4,-16 -3,-3 -8,-4 -14,-4 -4,0 -8,1 -12,3 -3,2 -6,5 -8,9l0 62 -15 0 0 -85 13 0z"/>
   <polygon id="9" class="fil2" points="5112,1183 5113,1189 5114,1189 5115,1183 5135,1123 5151,1123 5119,1208 5107,1208 5076,1123 5092,1123 "/>
   <path id="10" class="fil2" d="M5181 1208l-15 0 0 -85 15 0 0 85zm0 -107l-15 0 0 -16 15 0 0 16z"/>
   <path id="11" class="fil2" d="M5246 1136l-8 0c-4,0 -8,1 -11,3 -3,2 -5,5 -6,8l0 61 -16 0 0 -85 14 0 2 12c2,-4 5,-8 9,-10 3,-3 7,-4 12,-4 1,0 2,0 3,0 1,1 2,1 3,1l-2 14z"/>
   <path id="12" class="fil2" d="M5255 1164c0,-12 4,-23 11,-31 7,-8 16,-12 28,-12 11,0 21,4 28,12 6,8 10,19 10,31l0 2c0,13 -4,23 -10,31 -7,9 -17,13 -28,13 -12,0 -21,-5 -28,-13 -7,-8 -11,-18 -11,-31l0 -2zm16 2c0,9 2,17 6,22 3,6 9,9 17,9 7,0 13,-3 17,-9 3,-5 5,-13 5,-22l0 -2c0,-8 -2,-16 -5,-22 -4,-6 -10,-9 -17,-9 -8,0 -14,3 -17,9 -4,6 -6,14 -6,22l0 2z"/>
   <path id="13" class="fil2" d="M5365 1123l1 12c3,-4 6,-8 11,-10 4,-3 9,-4 14,-4 9,0 16,3 21,8 6,6 8,14 8,25l0 54 -15 0 0 -54c0,-7 -2,-12 -5,-16 -3,-3 -7,-4 -14,-4 -4,0 -8,1 -11,3 -4,2 -7,5 -9,9l0 62 -15 0 0 -85 14 0z"/>
   <path id="14" class="fil2" d="M5456 1123l2 11c2,-4 6,-7 10,-10 4,-2 9,-3 15,-3 6,0 11,1 15,4 4,3 7,7 9,12 3,-5 6,-9 11,-12 4,-3 9,-4 15,-4 9,0 16,3 21,9 5,6 7,15 7,27l0 51 -15 0 0 -51c0,-9 -2,-15 -5,-18 -3,-4 -7,-5 -13,-5 -5,0 -9,1 -13,5 -3,4 -5,9 -5,14l0 1 0 54 -16 0 0 -51c0,-8 -1,-14 -4,-18 -3,-3 -8,-5 -13,-5 -5,0 -9,1 -12,3 -3,2 -5,4 -7,8l0 63 -15 0 0 -85 13 0z"/>
   <path id="15" class="fil2" d="M5619 1210c-12,0 -21,-4 -28,-12 -7,-8 -11,-18 -11,-31l0 -4c0,-12 4,-22 11,-30 7,-8 16,-12 26,-12 11,0 20,4 26,10 6,7 9,17 9,28l0 10 -56 0 0 0c0,8 2,15 6,20 4,6 10,8 17,8 5,0 10,0 14,-2 4,-1 7,-4 10,-6l6 10c-3,3 -7,5 -12,8 -5,2 -11,3 -18,3zm-2 -77c-5,0 -10,3 -14,7 -3,4 -5,10 -6,16l0 1 39 0 0 -2c0,-6 -1,-12 -5,-16 -3,-4 -8,-6 -14,-6z"/>
   <path id="16" class="fil2" d="M5683 1123l1 12c3,-4 7,-8 11,-10 4,-3 9,-4 14,-4 10,0 17,3 22,8 5,6 7,14 7,25l0 54 -15 0 0 -54c0,-7 -2,-12 -5,-16 -3,-3 -7,-4 -13,-4 -5,0 -9,1 -12,3 -4,2 -6,5 -8,9l0 62 -16 0 0 -85 14 0z"/>
   <path id="17" class="fil2" d="M5781 1102l0 21 17 0 0 11 -17 0 0 52c0,4 1,6 3,8 2,2 4,2 6,2 1,0 2,0 3,0 2,0 2,0 3,-1l2 11c-1,1 -2,2 -5,3 -2,0 -4,1 -6,1 -7,0 -12,-2 -16,-6 -3,-4 -5,-10 -5,-18l0 -52 -14 0 0 -11 14 0 0 -21 15 0z"/>
   <circle class="fil3" cx="5021" cy="1014" r="34"/>
   <rect class="fil0" x="1449" y="1014" width="1399" height="270" rx="978" ry="452"/>
   <path class="fil1" d="M1583 1004l1130 0c40,0 76,16 103,43 26,26 42,62 42,102l0 0c0,40 -16,76 -42,102 -27,27 -63,43 -103,43l-1130 0c-39,0 -76,-16 -102,-43 -26,-26 -43,-62 -43,-102l0 0c0,-40 17,-76 43,-102 26,-27 63,-43 102,-43zm1130 20l-1130 0c-34,0 -65,14 -88,37 -22,22 -36,54 -36,88l0 0c0,34 14,65 36,88 23,23 54,37 88,37l1130 0c34,0 66,-14 88,-37 23,-23 37,-54 37,-88l0 0c0,-34 -14,-66 -37,-88 -22,-23 -54,-37 -88,-37z"/>
   <path class="fil2" d="M1600 1170l0 0c0,11 -3,20 -11,27 -8,8 -18,11 -31,11 -13,0 -23,-4 -32,-13 -8,-10 -12,-21 -12,-35l0 -21c0,-14 4,-26 12,-35 9,-9 19,-14 32,-14 13,0 23,4 31,11 8,7 11,16 11,27l0 1 -15 0c0,-8 -2,-15 -7,-19 -5,-5 -11,-7 -20,-7 -9,0 -16,3 -21,10 -5,7 -7,16 -7,26l0 20c0,11 2,20 7,27 5,7 12,10 21,10 9,0 15,-2 20,-7 5,-5 7,-11 7,-19l15 0z"/>
   <path id="1" class="fil2" d="M1615 1163c0,-12 3,-23 10,-31 7,-8 16,-12 28,-12 12,0 21,4 28,12 7,8 10,19 10,31l0 2c0,13 -3,23 -10,31 -7,8 -16,12 -28,12 -12,0 -21,-4 -28,-12 -7,-8 -10,-18 -10,-31l0 -2zm15 2c0,9 2,16 6,22 4,6 9,9 17,9 7,0 13,-3 17,-9 4,-6 6,-13 6,-22l0 -2c0,-9 -2,-16 -6,-22 -4,-6 -10,-9 -17,-9 -8,0 -13,3 -17,9 -4,6 -6,13 -6,22l0 2z"/>
   <path id="2" class="fil2" d="M1760 1184c0,-3 -2,-6 -4,-8 -3,-3 -8,-5 -15,-6 -10,-2 -18,-5 -23,-9 -6,-4 -8,-9 -8,-16 0,-7 3,-13 9,-18 5,-5 13,-7 23,-7 10,0 17,2 23,7 6,6 9,12 9,19l0 1 -15 0c0,-4 -2,-8 -5,-10 -3,-3 -7,-5 -12,-5 -6,0 -10,1 -13,4 -2,2 -4,5 -4,8 0,4 1,6 4,8 2,2 7,4 14,6 11,2 19,5 24,9 6,4 8,9 8,16 0,7 -3,14 -9,18 -6,5 -14,7 -24,7 -11,0 -19,-2 -26,-8 -6,-6 -9,-12 -9,-19l1 -1 14 0c1,6 3,10 7,12 3,3 8,4 13,4 6,0 10,-1 13,-3 3,-3 5,-5 5,-9z"/>
   <path id="3" class="fil2" d="M1815 1101l0 20 16 0 0 12 -16 0 0 51c0,4 1,7 3,9 1,1 3,2 6,2 1,0 2,0 3,0 1,0 2,-1 3,-1l2 11c-1,1 -3,2 -5,2 -2,1 -5,1 -7,1 -6,0 -11,-2 -15,-5 -4,-4 -5,-10 -5,-18l0 -52 -14 0 0 -12 14 0 0 -20 15 0z"/>
   <path id="4" class="fil2" d="M1905 1194c-3,5 -7,8 -11,11 -4,2 -9,3 -14,3 -10,0 -17,-3 -22,-9 -5,-6 -8,-15 -8,-27l0 -51 16 0 0 51c0,9 1,15 4,19 2,3 6,5 12,5 6,0 10,-1 14,-4 3,-2 6,-5 8,-9l0 -62 15 0 0 86 -13 0 -1 -13z"/>
   <path id="5" class="fil2" d="M1956 1121l1 12c3,-4 6,-8 11,-10 4,-2 9,-3 15,-3 5,0 10,1 14,4 4,2 7,6 9,12 3,-5 7,-9 11,-12 5,-3 10,-4 16,-4 8,0 15,3 20,9 5,6 8,15 8,27l0 51 -16 0 0 -52c0,-8 -1,-14 -4,-17 -3,-4 -7,-6 -13,-6 -5,0 -10,2 -13,6 -3,4 -5,8 -6,14l0 0 0 55 -15 0 0 -52c0,-7 -2,-13 -5,-17 -3,-4 -7,-6 -13,-6 -4,0 -8,1 -11,3 -3,2 -6,5 -7,9l0 63 -16 0 0 -86 14 0z"/>
   <path id="6" class="fil2" d="M2119 1208c-12,0 -22,-4 -29,-12 -7,-7 -10,-18 -10,-30l0 -4c0,-12 3,-22 11,-30 7,-8 15,-12 25,-12 12,0 21,3 26,10 6,7 9,16 9,28l0 10 -55 0 0 0c0,8 2,15 6,20 4,5 9,8 17,8 5,0 10,-1 14,-2 3,-2 7,-4 10,-6l6 10c-3,3 -7,5 -12,7 -5,2 -11,3 -18,3zm-3 -76c-5,0 -9,2 -13,7 -4,4 -6,9 -7,16l0 0 40 0 0 -2c0,-6 -2,-11 -5,-15 -3,-4 -8,-6 -15,-6z"/>
   <path id="7" class="fil2" d="M2209 1135l-8 0c-4,0 -7,1 -10,3 -3,2 -5,4 -7,8l0 61 -15 0 0 -86 14 0 1 13c2,-5 5,-8 9,-10 4,-3 8,-4 12,-4 1,0 3,0 4,0 1,0 1,0 2,1l-2 14z"/>
   <path id="8" class="fil2" d="M2330 1178c0,-6 -2,-10 -6,-13 -4,-4 -11,-7 -21,-9 -12,-3 -22,-7 -29,-13 -7,-6 -10,-13 -10,-21 0,-9 4,-17 11,-23 7,-6 17,-9 29,-9 12,0 22,4 30,11 7,6 11,14 10,24l0 0 -15 0c0,-7 -2,-12 -6,-16 -5,-4 -11,-6 -19,-6 -8,0 -14,1 -18,5 -4,3 -6,8 -6,13 0,5 2,10 6,13 5,3 12,6 22,9 12,3 21,7 28,13 6,6 9,13 9,22 0,9 -4,16 -11,22 -8,5 -18,8 -30,8 -11,0 -21,-3 -30,-9 -9,-6 -13,-15 -13,-25l0 -1 15 0c0,8 3,13 8,17 5,4 12,6 20,6 8,0 14,-2 19,-5 4,-3 7,-8 7,-13z"/>
   <path id="9" class="fil2" d="M2400 1208c-12,0 -21,-4 -28,-12 -7,-7 -11,-18 -11,-30l0 -4c0,-12 4,-22 11,-30 7,-8 16,-12 26,-12 11,0 20,3 26,10 6,7 9,16 9,28l0 10 -56 0 0 0c0,8 2,15 6,20 4,5 10,8 17,8 5,0 10,-1 14,-2 4,-2 7,-4 10,-6l6 10c-3,3 -7,5 -12,7 -5,2 -11,3 -18,3zm-2 -76c-5,0 -10,2 -13,7 -4,4 -6,9 -7,16l0 0 39 0 0 -2c0,-6 -1,-11 -5,-15 -3,-4 -8,-6 -14,-6z"/>
   <path id="10" class="fil2" d="M2491 1135l-8 0c-4,0 -8,1 -11,3 -3,2 -5,4 -6,8l0 61 -16 0 0 -86 14 0 2 13c2,-5 5,-8 9,-10 3,-3 7,-4 12,-4 1,0 2,0 3,0 1,0 2,0 3,1l-2 14z"/>
   <polygon id="11" class="fil2" points="2535,1182 2537,1188 2537,1188 2539,1182 2558,1121 2574,1121 2543,1207 2531,1207 2499,1121 2515,1121 "/>
   <path id="12" class="fil2" d="M2605 1207l-16 0 0 -86 16 0 0 86zm0 -107l-16 0 0 -17 16 0 0 17z"/>
   <path id="13" class="fil2" d="M2664 1196c5,0 9,-2 13,-5 4,-3 6,-7 6,-11l14 0 0 0c0,7 -3,14 -10,20 -6,5 -14,8 -23,8 -13,0 -22,-4 -29,-12 -6,-8 -10,-18 -10,-30l0 -4c0,-12 4,-22 10,-30 7,-8 16,-12 29,-12 10,0 18,3 24,9 6,6 9,13 9,21l0 1 -14 0c0,-5 -2,-10 -5,-13 -4,-4 -9,-6 -14,-6 -9,0 -14,3 -18,9 -3,6 -5,13 -5,21l0 4c0,8 2,16 5,21 4,6 9,9 18,9z"/>
   <path id="14" class="fil2" d="M2750 1208c-12,0 -21,-4 -28,-12 -7,-7 -11,-18 -11,-30l0 -4c0,-12 4,-22 11,-30 7,-8 16,-12 26,-12 11,0 20,3 26,10 6,7 9,16 9,28l0 10 -56 0 0 0c0,8 2,15 6,20 4,5 10,8 17,8 5,0 10,-1 14,-2 4,-2 7,-4 10,-6l6 10c-3,3 -7,5 -12,7 -5,2 -11,3 -18,3zm-2 -76c-6,0 -10,2 -14,7 -3,4 -6,9 -6,16l0 0 39 0 0 -2c0,-6 -2,-11 -5,-15 -3,-4 -8,-6 -14,-6z"/>
   <circle class="fil3" cx="2148" cy="1014" r="34"/>
   <polygon class="fil1" points="712,770 5022,770 5022,790 712,790 "/>
   <line class="fil4 str0" x1="2867" y1="774" x2="2867" y2= "529" />
   <polygon class="fil1" points="702,1024 702,780 722,780 722,1024 "/>
   <polygon class="fil1" points="2138,1024 2138,780 2158,780 2158,1024 "/>
   <polygon class="fil1" points="3489,1024 3489,780 3510,780 3510,1024 "/>
   <polygon class="fil1" points="5012,1024 5012,780 5032,780 5032,1024 "/>
  </g>
 </g>
</svg>
