<?xml version="1.0" encoding="UTF-8"?>
<!DOCTYPE svg PUBLIC "-//W3C//DTD SVG 1.1//EN" "http://www.w3.org/Graphics/SVG/1.1/DTD/svg11.dtd">
<!-- Creator: CorelDRAW X7 -->
<svg xmlns="http://www.w3.org/2000/svg" xml:space="preserve" width="2.798in" height="2.798in" version="1.1" style="shape-rendering:geometricPrecision; text-rendering:geometricPrecision; image-rendering:optimizeQuality; fill-rule:evenodd; clip-rule:evenodd"
viewBox="0 0 2798 2798"
 xmlns:xlink="http://www.w3.org/1999/xlink"
 aria-label="Pocket">
 <defs>
  <style type="text/css">
   <![CDATA[
    .fil0 {fill:#B68834}
    .fil2 {fill:#E84352}
    .fil1 {fill:white}
   ]]>
  </style>
 </defs>
 <g id="Layer_x0020_1">
  <metadata id="CorelCorpID_0Corel-Layer"/>
  <circle class="fil0" cx="1399" cy="1399" r="1399"/>
  <g id="_653169056">
   <path class="fil1" d="M886 665l1026 0c122,0 221,99 221,221l0 1026c0,122 -99,221 -221,221l-1026 0c-122,0 -221,-99 -221,-221l0 -1026c0,-122 99,-221 221,-221z"/>
   <g>
    <path class="fil2" d="M1779 920l-760 0c-75,0 -136,61 -136,137l0 377c0,7 1,14 2,21 -1,10 -2,20 -2,30 0,0 0,0 0,1 0,216 231,392 516,392 285,0 516,-176 516,-392 0,-11 -1,-21 -2,-31 1,-7 2,-14 2,-21l0 -377c0,-76 -61,-137 -136,-137l0 0z"/>
    <path class="fil1" d="M1751 1344l-344 342 -124 -125 344 -342c34,-34 90,-34 124,1l0 0c34,34 34,90 0,124z"/>
    <path class="fil1" d="M1189 1218l342 344 -124 124 -342 -344c-34,-34 -34,-90 0,-124l0 0c34,-34 90,-34 124,0z"/>
   </g>
  </g>
 </g>
</svg>
