<?xml version="1.0" encoding="UTF-8"?>
<!DOCTYPE svg PUBLIC "-//W3C//DTD SVG 1.1//EN" "http://www.w3.org/Graphics/SVG/1.1/DTD/svg11.dtd">
<!-- Creator: CorelDRAW X7 -->
<svg xmlns="http://www.w3.org/2000/svg" xml:space="preserve" width="2.798in" height="2.798in" version="1.1" style="shape-rendering:geometricPrecision; text-rendering:geometricPrecision; image-rendering:optimizeQuality; fill-rule:evenodd; clip-rule:evenodd"
viewBox="0 0 2798 2798"
 xmlns:xlink="http://www.w3.org/1999/xlink"
 aria-label="Pocket">
 <defs>
  <style type="text/css">
   <![CDATA[
    .fil7 {fill:#46B499}
    .fil4 {fill:#806202}
    .fil3 {fill:#9FDBD9}
    .fil6 {fill:#A0DBD9}
    .fil0 {fill:#B68834}
    .fil5 {fill:#E84352}
    .fil1 {fill:#FFF0BA}
    .fil2 {fill:white}
   ]]>
  </style>
 </defs>
 <g id="Layer_x0020_1">
  <metadata id="CorelCorpID_0Corel-Layer"/>
  <g id="_661689176">
   <circle class="fil0" cx="1399" cy="1399" r="1399"/>
   <path class="fil1" d="M1581 862c64,9 165,72 204,105 53,43 102,97 139,170 158,309 -3,690 -344,779 -87,22 -193,22 -280,-2 -63,-17 -158,-60 -204,-105 2,-2 1,-1 5,-4l3 -3c36,-23 196,-108 235,-130 40,-23 81,-44 122,-69 15,-8 113,-57 119,-69l1 -672zm-51 562c7,5 1,-1 4,6 3,6 2,13 2,21 -1,9 -3,16 -6,25 -28,74 -99,53 -118,64l-232 134c-66,37 -119,84 -168,52 -30,-21 -40,-63 -25,-82 -22,-69 19,-88 64,-113 41,-23 79,-47 120,-70 39,-22 82,-46 121,-70 97,-59 40,-13 77,-65 7,-9 15,-13 24,-20 -3,-46 0,-100 0,-147l0 -290c0,-29 -9,-98 50,-96 20,0 38,15 43,30 6,19 3,478 2,504 43,21 57,73 42,117zm-866 -3c-6,86 47,223 79,288 40,81 103,159 156,207 146,133 316,206 524,206 212,-1 372,-81 519,-211 57,-51 120,-143 154,-210 32,-62 85,-225 75,-287 -10,-68 1,-70 -24,-158 -65,-227 -219,-398 -431,-493 -295,-132 -665,-44 -871,201 -13,16 -26,32 -41,51 -53,70 -94,161 -118,250 -26,95 -19,137 -22,156z"/>
   <path class="fil2" d="M664 1421c-14,-16 2,-155 6,-183 9,-55 24,-107 43,-153 48,-118 112,-207 203,-288 134,-120 309,-190 498,-190 122,-1 230,27 325,71 64,30 155,89 203,141l24 23c13,11 15,17 25,27 82,90 154,242 172,364 4,23 21,161 8,181 10,62 -43,225 -75,287 -34,67 -97,159 -154,210 -147,130 -307,210 -519,211 -208,0 -378,-73 -524,-206 -53,-48 -116,-126 -156,-207 -32,-65 -85,-202 -79,-288zm123 -766c-5,10 -11,13 -20,21 -9,8 -53,56 -61,60l-43 55c-96,126 -155,268 -181,426 -4,27 -5,70 -10,93 -1,62 1,109 6,167 5,76 13,82 28,144 5,20 13,45 21,65 4,11 7,19 12,30 43,97 75,164 146,249 27,32 53,61 84,89 83,77 212,163 322,200 68,22 136,41 207,50 189,24 418,-17 577,-111 44,-26 93,-54 131,-88l19 -15c6,-5 3,-2 4,-5l2 -11 12 -2c18,-3 104,-103 119,-123 19,-25 33,-44 51,-71 15,-25 31,-50 45,-77 39,-79 79,-181 91,-276l14 -110c-3,-117 3,-114 -17,-234 -32,-189 -137,-359 -261,-488 -115,-119 -313,-230 -491,-259 -111,-18 -121,-18 -236,-15 -200,13 -410,96 -557,226l-9 8c-5,3 1,1 -5,2z"/>
   <path class="fil3" d="M1580 1534c-6,12 -104,61 -119,69 -41,25 -82,46 -122,69 -39,22 -199,107 -235,130l-3 3c-4,3 -3,2 -5,4 46,45 141,88 204,105 87,24 193,24 280,2 341,-89 502,-470 344,-779 -37,-73 -86,-127 -139,-170 -39,-33 -140,-96 -204,-105l-1 672z"/>
   <path class="fil4" d="M2363 1460l0 -45 -14 110c-12,95 -52,197 -91,276 -14,27 -30,52 -45,77 -18,27 -32,46 -51,71 -15,20 -101,120 -119,123l-2 8c-6,2 -8,3 -12,5 -1,3 2,0 -4,5l-19 15c-38,34 -87,62 -131,88 -159,94 -388,135 -577,111 -71,-9 -139,-28 -207,-50 -110,-37 -239,-123 -322,-200 -31,-28 -57,-57 -84,-89 -71,-85 -103,-152 -146,-249 -5,-11 -8,-19 -12,-30 -8,-20 -16,-45 -21,-65 -15,-62 -23,-68 -28,-144 -5,-58 -7,-105 -6,-167l-2 181c3,99 13,177 42,272 20,65 45,119 75,175 30,57 63,100 100,147l29 34c12,13 19,20 30,32 157,157 361,255 595,275 314,27 572,-107 733,-261 154,-148 294,-384 289,-705z"/>
   <path class="fil3" d="M664 1421c3,-19 -4,-61 22,-156 24,-89 65,-180 118,-250 15,-19 28,-35 41,-51 206,-245 576,-333 871,-201 212,95 366,266 431,493 25,88 14,90 24,158 13,-20 -4,-158 -8,-181 -18,-122 -90,-274 -172,-364 -10,-10 -12,-16 -25,-27l-24 -23c-48,-52 -139,-111 -203,-141 -95,-44 -203,-72 -325,-71 -189,0 -364,70 -498,190 -91,81 -155,170 -203,288 -19,46 -34,98 -43,153 -4,28 -20,167 -6,183z"/>
   <path class="fil5" d="M987 1644c15,24 33,40 64,40 32,0 103,-49 140,-70 24,-13 45,-26 69,-39 44,-25 90,-53 135,-78 60,-33 39,-2 79,-20 5,-2 12,-6 17,-9 11,-6 27,-22 34,-34l5 -10c15,-44 1,-96 -42,-117 1,-26 4,-485 -2,-504 -5,-15 -23,-30 -43,-30 -59,-2 -50,67 -50,96l0 290c0,47 -3,101 0,147 -9,7 -17,11 -24,20 -37,52 20,6 -77,65 -39,24 -82,48 -121,70 -41,23 -79,47 -120,70 -45,25 -86,44 -64,113z"/>
   <path class="fil6" d="M987 1644c-15,19 -5,61 25,82 49,32 102,-15 168,-52l232 -134c19,-11 90,10 118,-64 3,-9 5,-16 6,-25 0,-8 1,-15 -2,-21 -3,-7 3,-1 -4,-6l-5 10c-7,12 -23,28 -34,34 -5,3 -12,7 -17,9 -40,18 -19,-13 -79,20 -45,25 -91,53 -135,78 -24,13 -45,26 -69,39 -37,21 -108,70 -140,70 -31,0 -49,-16 -64,-40z"/>
   <path class="fil7" d="M2029 2085c4,-2 6,-3 12,-5l2 -8 -12 2 -2 11z"/>
  </g>
 </g>
</svg>
